<svg xmlns:xlink="http://www.w3.org/1999/xlink" xmlns:dc="http://purl.org/dc/elements/1.1/" xmlns:cc="http://creativecommons.org/ns#" xmlns:rdf="http://www.w3.org/1999/02/22-rdf-syntax-ns#" xmlns:svg="http://www.w3.org/2000/svg" xmlns="http://www.w3.org/2000/svg" xmlns:sodipodi="http://sodipodi.sourceforge.net/DTD/sodipodi-0.dtd" xmlns:inkscape="http://www.inkscape.org/namespaces/inkscape" width="966" height="199" viewBox="0 0 395.44299 81.600998" version="1.1" id="svg8" inkscape:version="0.92.3 (2405546, 2018-03-11)" sodipodi:docname="sql.svg">
  <defs id="defs2">
    <filter style="color-interpolation-filters:sRGB" inkscape:label="Drop Shadow" id="filter1298">
      <feFlood flood-opacity="1" flood-color="rgb(182,182,182)" result="flood" id="feFlood1288"/>
      <feComposite in="flood" in2="SourceGraphic" operator="in" result="composite1" id="feComposite1290"/>
      <feGaussianBlur in="composite1" stdDeviation="1" result="blur" id="feGaussianBlur1292"/>
      <feOffset dx="1.3" dy="1.7" result="offset" id="feOffset1294"/>
      <feComposite in="SourceGraphic" in2="offset" operator="over" result="composite2" id="feComposite1296"/>
    </filter>
  </defs>
  <sodipodi:namedview id="base" pagecolor="#ffffff" bordercolor="#666666" borderopacity="1.0" inkscape:pageopacity="0.0" inkscape:pageshadow="2" inkscape:zoom="0.76666667" inkscape:cx="684.90232" inkscape:cy="144.52772" inkscape:document-units="mm" inkscape:current-layer="layer1" showgrid="false" inkscape:window-width="1920" inkscape:window-height="1052" inkscape:window-x="0" inkscape:window-y="0" inkscape:window-maximized="1"/>
  <metadata id="metadata5">
    <rdf:RDF>
      <cc:Work rdf:about="">
        <dc:format>image/svg+xml</dc:format>
        <dc:type rdf:resource="http://purl.org/dc/dcmitype/StillImage"/>
        <dc:title/>
      </cc:Work>
    </rdf:RDF>
  </metadata>
  <g inkscape:label="Layer 1" inkscape:groupmode="layer" id="layer1" transform="translate(0,-215.399)">
    <g id="g866" transform="translate(-15.753334,-225.10334)" style="filter:url(#filter1298)">
      <g id="g1325">
        <path style="fill:#343434;fill-opacity:1;stroke-width:1" d="m 112.50138,514.09221 c -0.54787,-0.12908 -1.7385,-0.57929 -2.64584,-1.00047 -0.90733,-0.42119 -2.24501,-1.03298 -2.97262,-1.35956 -0.7276,-0.32657 -2.55354,-1.17409 -4.05765,-1.88336 -1.5041,-0.70928 -2.77687,-1.2896 -2.828365,-1.2896 -0.0515,0 -1.202116,-0.52105 -2.556931,-1.15789 -8.549201,-4.01862 -12.017796,-5.34344 -14.733011,-5.62724 -2.361649,-0.24684 -3.187036,0.0249 -5.839248,1.92216 -1.33781,0.95702 -2.49981,1.67261 -2.582222,1.5902 -0.578218,-0.57822 2.70361,-4.78247 5.03709,-6.45287 2.203698,-1.5775 2.584288,-1.73265 4.541588,-1.85149 1.58922,-0.0965 2.246379,0.0183 4.630209,0.80879 1.527968,0.50668 3.135312,1.06807 3.571875,1.24753 0.436562,0.17946 1.031875,0.42424 1.322916,0.54396 0.291042,0.11972 1.481667,0.59144 2.645834,1.04826 1.164166,0.45683 2.354791,0.93474 2.645833,1.06204 1.361332,0.59543 6.034812,2.48729 7.937502,3.21317 1.16417,0.44413 2.47385,0.95762 2.91042,1.14109 6.01652,2.52851 8.42187,3.30604 10.22743,3.30604 1.01839,0 1.29604,-0.1319 2.08843,-0.99218 1.06025,-1.15109 1.24195,-1.45201 2.93619,-4.86287 0.69605,-1.40127 1.43967,-2.61458 1.6525,-2.69625 1.54826,-0.59413 0.91208,3.61459 -1.19534,7.90786 -2.24553,4.57461 -4.02397,5.69483 -8.96234,5.64526 -1.52797,-0.0154 -3.22638,-0.1335 -3.77425,-0.26258 z m -74.807,-17.9701 c -5.040925,-0.38188 -10.396197,-1.58348 -14.155209,-3.17609 -0.582083,-0.24662 -1.270856,-0.52333 -1.530606,-0.61493 -0.426161,-0.15027 -0.435763,-0.23803 -0.09834,-0.89888 0.205665,-0.4028 0.642226,-1.32767 0.970136,-2.05528 0.32791,-0.7276 1.294896,-2.28607 2.148858,-3.46326 0.853962,-1.1772 1.552658,-2.29381 1.552658,-2.48137 0,-0.18756 -0.752567,-1.13878 -1.672371,-2.11383 -2.650674,-2.80985 -4.674487,-5.47886 -5.700608,-7.51799 -0.907899,-1.80418 -0.949361,-2.00717 -0.955245,-4.67646 -0.006,-2.71041 0.02312,-2.84968 1.014613,-4.85722 2.398416,-4.85624 10.97655,-11.21043 18.465923,-13.67852 2.220935,-0.73189 2.654456,-0.78893 5.22591,-0.68757 3.479281,0.13715 3.558031,0.15734 8.166695,2.09364 3.62391,1.52256 3.801157,1.56904 4.425055,1.16024 0.364572,-0.23888 1.12086,-1.41254 1.722507,-2.67311 1.140063,-2.38867 1.469546,-2.61748 2.6144,-1.81559 0.525479,0.36806 0.59226,0.58195 0.453203,1.45157 -0.0897,0.56094 -0.333066,1.40849 -0.540817,1.88344 -0.207751,0.47494 -0.699698,1.7565 -1.093218,2.84791 -0.91933,2.54971 -3.944896,8.81873 -4.464064,9.2496 -0.33043,0.27424 -0.713004,0.12353 -2.239748,-0.88229 -5.260438,-3.46559 -10.277416,-5.39169 -14.177543,-5.44298 -1.642616,-0.0216 -4.357015,0.6457 -5.881277,1.44584 -1.862573,0.97773 -3.916313,3.18188 -4.303084,4.61824 -0.748175,2.77851 1.026826,6.93742 4.598604,10.77476 1.414647,1.51982 1.414647,1.51982 2.35287,0.8042 0.516023,-0.39359 1.097358,-0.86903 1.291855,-1.05654 2.237907,-2.15751 10.885596,-9.19208 11.299941,-9.19208 1.410756,0 5.094171,1.28461 6.817956,2.3778 4.121337,2.61368 6.180526,6.28064 6.180526,11.00617 0,2.70873 -0.71374,4.77708 -2.775495,8.04311 -1.563426,2.47663 -6.864191,7.08643 -9.659922,8.40074 -2.567241,1.20689 -5.160188,1.49747 -10.054166,1.12673 z m 9.334108,-7.66011 c 1.792073,-0.29351 2.878034,-0.99085 3.788114,-2.43251 0.573767,-0.90891 0.658024,-1.34582 0.661336,-3.42936 0.0083,-5.23646 -2.337964,-8.31395 -6.921677,-9.07874 -0.877869,-0.14647 -1.116531,-0.0139 -3.439582,1.90992 -1.372942,1.13703 -3.219394,2.65634 -4.103226,3.37626 -4.187848,3.41118 -6.196285,5.1991 -6.069957,5.4035 0.227108,0.36747 3.32826,1.99419 5.031092,2.63908 2.142115,0.81126 4.57093,1.34013 7.276042,1.58434 1.236927,0.11167 2.248958,0.21989 2.248958,0.24048 0,0.0206 0.688007,-0.0752 1.5289,-0.21297 z m 65.401182,6.73576 c -0.17964,-0.14552 -0.40212,-0.87604 -0.49439,-1.62338 -0.18535,-1.50121 -0.0251,-1.68391 1.477,-1.68391 1.10926,0 3.52785,-0.73565 4.18446,-1.27276 0.34128,-0.27918 0.64676,-0.99342 0.81357,-1.90224 0.40475,-2.20514 0.62044,-22.19256 0.29034,-26.90556 -0.40602,-5.7971 -0.72108,-6.28533 -4.90614,-7.60283 -1.78206,-0.56101 -1.87974,-0.63264 -1.79694,-1.31763 0.0482,-0.39841 0.24587,-1.10324 0.43934,-1.56631 0.35179,-0.84193 0.35179,-0.84193 11.65645,-0.78269 6.21757,0.0326 11.33642,0.0926 11.37523,0.13327 0.0388,0.0407 0.1546,0.75312 0.25733,1.58309 0.17837,1.44122 0.15871,1.51458 -0.43749,1.63208 -3.55697,0.70104 -4.82971,1.13023 -5.32652,1.79619 -0.78829,1.0567 -1.0292,6.23108 -0.93455,20.07263 0.0806,11.78079 0.0806,11.78079 0.6856,12.54961 1.25811,1.5987 1.27986,1.60334 7.25879,1.54843 6.25687,-0.0574 8.07463,-0.38926 9.43869,-1.72288 1.05844,-1.03482 1.46737,-1.87748 2.60625,-5.37052 0.5219,-1.60073 1.07697,-2.99476 1.2335,-3.09785 0.40913,-0.26945 1.5549,0.0469 1.94454,0.53694 0.34401,0.43262 0.28395,2.07363 -0.20508,5.60362 -0.13104,0.94588 -0.43048,3.2676 -0.66541,5.15937 -0.23493,1.89177 -0.47271,3.67771 -0.5284,3.96875 -0.10012,0.52331 -0.31138,0.52917 -19.07039,0.52917 -12.25196,0 -19.08481,-0.0937 -19.29578,-0.26459 z m -30.608722,-0.51524 c -3.484444,-0.98232 -10.088772,-5.25934 -13.132824,-8.50493 -1.119722,-1.19385 -2.211115,-2.51021 -2.425317,-2.92524 -0.214201,-0.41502 -0.469508,-0.81531 -0.567346,-0.88953 -0.326202,-0.24746 -1.491265,-2.75533 -2.038545,-4.38812 -0.842952,-2.51489 -0.998816,-6.62568 -0.345144,-9.10298 0.824071,-3.12308 2.41609,-5.78203 5.043638,-8.42374 4.525172,-4.54956 9.049412,-7.37898 14.979595,-9.3681 3.000144,-1.00631 3.391127,-1.07212 7.099427,-1.19492 3.212848,-0.1064 4.244297,-0.0451 5.688541,0.33793 0.970264,0.25734 1.883177,0.55359 2.028698,0.65834 0.145521,0.10474 0.621771,0.27581 1.058334,0.38014 1.609165,0.38456 5.151015,3.074 6.898235,5.23803 2.38701,2.95648 3.1796,4.47729 3.66043,7.02364 0.44891,2.37724 0.28859,5.36806 -0.52057,9.7117 -1.27365,6.83704 -4.24552,12.10219 -8.97976,15.90909 -4.691692,3.77269 -14.386551,6.6835 -18.447392,5.53869 z m 10.426305,-7.20764 c 3.396351,-1.44591 4.843106,-2.68963 6.866843,-5.90316 0.724551,-1.15052 1.764014,-4.54845 2.096824,-6.85437 0.96907,-6.71428 -1.420486,-13.35568 -5.579066,-15.50616 -0.405125,-0.2095 -2.02796,-0.74872 -3.606303,-1.19827 -5.131707,-1.46163 -10.53497,-1.34996 -13.585338,0.28077 -0.509323,0.27228 -1.186625,0.61488 -1.505117,0.76132 -1.08853,0.50052 -3.010352,2.76696 -3.933674,4.63906 -1.58528,3.21426 -1.733973,6.81322 -0.405564,9.81631 0.30398,0.68719 0.552688,1.35971 0.552688,1.49447 0,0.47814 2.875558,4.07749 4.534096,5.67535 2.268707,2.1857 5.408941,4.44463 7.718901,5.5526 1.046216,0.50182 2.108954,1.02759 2.361642,1.16837 0.252688,0.14078 0.728938,0.25779 1.058333,0.26002 0.329396,0.002 0.777497,0.11947 0.995778,0.26053 0.547143,0.3536 0.551818,0.35274 2.429957,-0.44684 z" id="path826" inkscape:connector-curvature="0" sodipodi:nodetypes="ccccsscccsccsccccssscccccccccccsccccccssccccccccssccsscsscccccccscccscccscccsccccccccccsccccscsccccccssccccsccsscscscsccscsccsccs"/>
        <path style="fill:#cb2006;fill-opacity:1;stroke-width:1" d="m 399.97512,519.50664 c -0.51615,-0.20828 -0.40069,-0.75705 0.56298,-2.67565 1.30212,-2.59242 1.93749,-4.74251 1.52371,-5.15627 -0.55253,-0.55253 -14.53206,-0.4207 -18.02784,0.17001 -7.04688,1.19078 -8.07318,1.62283 -9.11246,3.83617 -0.38412,0.81808 -0.7987,1.66602 -0.9213,1.8843 -0.39577,0.70471 -1.87569,0.10302 -1.86929,-0.76 0.003,-0.23685 0.35894,-1.49145 0.79375,-2.788 0.43479,-1.29656 0.78965,-2.54672 0.78854,-2.77813 0,-0.23141 0.32629,-1.25187 0.72761,-2.26767 0.88064,-2.22922 2.02866,-3.44431 8.20409,-8.68329 2.86872,-2.4337 4.29948,-3.82108 4.29948,-4.16909 0,-0.28687 -0.57923,-1.62125 -1.28717,-2.9653 -2.2229,-4.22017 -4.40349,-8.39765 -6.38562,-12.23332 -3.08461,-5.96911 -4.79168,-9.19934 -5.35971,-10.14201 -0.65649,-1.08945 -0.5592,-1.20713 2.18458,-2.6422 5.06857,-2.65101 5.1811,-2.70349 10.55288,-4.92236 1.68934,-0.6978 1.68934,-0.6978 2.11667,-0.0946 0.23503,0.33178 0.42733,0.71384 0.42733,0.84904 0,0.13519 -0.77274,0.77462 -1.71723,1.42096 -2.39763,1.64077 -3.10348,2.76443 -2.66033,4.23501 0.11814,0.39204 0.36917,1.24858 0.5579,1.90343 0.1887,0.65484 0.45077,1.334 0.58237,1.50924 0.13158,0.17523 2.01806,3.89593 4.19214,8.26822 2.18964,4.40361 4.10843,7.94962 4.30162,7.94962 0.65138,0 2.94151,-2.98739 4.49308,-5.861 1.28664,-2.38299 1.69193,-4.4843 1.2477,-6.46929 -0.29134,-1.30188 -0.5538,-1.73527 -1.74268,-2.87758 -0.76981,-0.73968 -1.73826,-1.51961 -2.15212,-1.73318 -0.41384,-0.21357 -0.81198,-0.46181 -0.88474,-0.55163 -0.0728,-0.0898 -0.62175,-0.41141 -1.21997,-0.71464 -0.91231,-0.4624 -1.11445,-0.71347 -1.25357,-1.55689 -0.17246,-1.04539 0.37698,-2.15411 1.45185,-2.92971 0.25659,-0.18514 0.62119,-0.4866 0.81023,-0.66991 0.51594,-0.50023 3.63318,-2.03617 4.13253,-2.03617 0.68622,0 3.54748,1.51097 4.55615,2.40603 2.14275,1.90137 2.50145,2.28621 3.30446,3.54538 0.96245,1.50921 1.12249,1.94271 1.43706,3.89248 0.29678,1.83969 -0.41672,4.93762 -1.7404,7.55648 -1.80528,3.57168 -8.51647,10.50613 -16.80684,17.36595 -1.36218,1.12714 -3.00157,2.48715 -3.64302,3.02224 -0.64148,0.5351 -1.50479,1.21102 -1.9185,1.50207 -1.34964,0.94952 -0.89048,1.32596 1.50017,1.22992 1.16257,-0.0467 2.6956,-0.19371 3.40669,-0.32669 1.87976,-0.35153 14.31219,-0.30295 16.19163,0.0633 2.04007,0.39752 2.55981,0.94303 2.5854,2.71357 0.0266,1.8437 -1.00632,3.98314 -4.54663,9.41681 -1.91166,2.93405 -2.72198,3.65221 -3.68318,3.26436 z m -165.9599,-21.95772 c -2.25575,-0.74315 -3.54567,-1.54106 -5.28169,-3.26706 -1.26792,-1.2606 -2.02359,-2.32026 -2.8302,-3.96875 -1.50572,-3.07722 -1.94297,-4.97079 -1.93886,-8.39652 0.006,-4.78113 1.21591,-7.68933 4.59073,-11.03201 3.6826,-3.64754 5.37642,-4.99033 8.25966,-6.54791 3.39966,-1.83657 4.93593,-1.58968 9.10661,1.46351 1.80305,1.31994 3.83518,3.44337 4.24716,4.43797 0.20988,0.50671 0.23639,1.15685 0.082,2.01133 -0.22813,1.26259 -0.22813,1.26259 -2.81349,2.52192 -1.71225,0.83405 -2.98923,1.28081 -3.78128,1.32292 -1.19592,0.0636 -1.19592,0.0636 -2.05624,-1.47758 -0.47319,-0.84764 -1.32196,-2.06165 -1.88617,-2.69779 -1.0266,-1.15748 -3.22756,-2.50792 -4.08744,-2.50792 -0.63669,0 -1.52361,1.09679 -2.20259,2.72378 -0.50312,1.20558 -0.57482,1.87198 -0.5752,5.34601 -5.3e-4,4.40679 0.29512,5.71115 1.85996,8.20707 1.12468,1.79386 2.1191,2.81161 3.54036,3.62342 2.50852,1.43283 5.00741,1.14124 8.15553,-0.95162 1.04308,-0.69344 2.10534,-1.2208 2.36059,-1.17191 0.25525,0.0489 0.70152,0.53089 0.99171,1.07113 0.52762,0.98226 0.52762,0.98226 -1.05833,2.60182 -1.70741,1.7436 -4.97642,4.35004 -6.64225,5.29599 -1.64844,0.93607 -4.05461,1.56232 -5.92391,1.54182 -0.94589,-0.0104 -1.89839,-0.0777 -2.11667,-0.14962 z m 64.82292,-0.32759 c -3.62696,-1.38336 -6.90798,-5.07441 -8.31038,-9.34898 -0.74509,-2.27111 -1.022,-5.54545 -0.6927,-8.19079 0.29276,-2.35178 0.54808,-3.20943 1.54813,-5.20032 0.64074,-1.27563 3.1896,-4.23718 4.70053,-5.46162 0.71456,-0.57908 1.46622,-1.21383 1.67034,-1.41056 0.85095,-0.82016 3.1876,-2.41318 4.87585,-3.32417 2.20525,-1.18996 3.75314,-1.45847 4.95406,-0.85937 0.47326,0.23609 0.95282,0.42926 1.06569,0.42926 0.46042,0 3.40071,2.15509 5.0969,3.73577 1.98123,1.84632 2.35739,2.75824 2.04809,4.96548 -0.15547,1.10961 -0.15547,1.10961 -2.8013,2.31413 -1.45521,0.66249 -3.95621,1.77183 -5.55781,2.4652 -4.89355,2.11856 -8.31199,3.8106 -8.45582,4.18542 -0.24043,0.62653 0.90657,3.50947 1.96778,4.94599 1.01275,1.3709 2.44735,2.65961 3.68277,3.30823 1.39697,0.73346 5.90663,0.23795 6.63403,-0.72892 0.34954,-0.46463 2.71597,-1.9078 3.12584,-1.90629 0.46992,0.002 1.38133,1.33168 1.38133,2.01569 0,0.45819 -2.34286,2.79251 -4.77628,4.75886 -4.03916,3.2639 -8.84351,4.5708 -12.15705,3.30699 z m 4.48956,-21.39678 c 2.23689,-1.12924 4.11128,-2.18581 4.1653,-2.34795 0.29165,-0.87491 -2.56968,-3.08563 -4.82361,-3.72682 -1.5398,-0.43803 -1.5398,-0.43803 -2.50733,0.65224 -1.18859,1.33936 -1.85309,3.3036 -1.85309,5.47759 0,1.66351 0.10922,1.99809 0.65223,1.99809 0.1647,0 2.12963,-0.92392 4.3665,-2.05315 z m -137.12628,21.19907 c -0.0741,-0.0741 -2.94641,-0.13868 -6.3829,-0.1435 -6.95674,-0.01 -6.63122,0.0806 -6.80072,-1.88666 -0.0866,-1.00484 -0.0824,-1.00946 1.49541,-1.64892 0.94923,-0.38471 1.86577,-0.98705 2.29098,-1.50561 0.86275,-1.05217 4.45252,-8.1948 7.94751,-15.81332 1.35024,-2.94333 2.58854,-5.59052 3.83674,-8.20208 0.66074,-1.38245 1.59333,-3.34698 2.07241,-4.36563 0.47908,-1.01864 1.46058,-3.10223 2.18111,-4.6302 0.72053,-1.52797 1.67505,-3.56113 2.12117,-4.51812 0.44611,-0.957 0.96729,-1.86522 1.15816,-2.01826 0.38783,-0.31096 3.87671,-0.31442 4.36329,-0.004 0.35676,0.22736 4.39037,8.16437 15.36544,30.23485 2.65016,5.32938 4.59548,8.81558 5.54986,9.94589 0.20193,0.23915 1.17946,0.69601 2.17228,1.01525 1.80512,0.58042 1.80512,0.58042 2.76007,-0.0379 0.53233,-0.3447 1.07001,-0.96965 1.21494,-1.41212 1.04384,-3.18691 1.07706,-33.02796 0.0413,-37.11448 -0.13738,-0.54203 -0.32402,-1.75943 -0.41476,-2.70531 -0.16498,-1.71979 -0.16498,-1.71979 0.7044,-2.23155 0.47816,-0.28147 1.76235,-1.04055 2.85376,-1.68685 3.24937,-1.92417 10.30522,-5.38332 10.79235,-5.29097 0.26139,0.0495 0.48639,0.37751 0.53283,0.77667 0.0654,0.56201 -0.26136,1.00583 -1.75154,2.37899 -1.00757,0.92845 -1.99338,1.98574 -2.1907,2.34954 -0.44488,0.82025 -0.66766,6.98986 -0.92193,25.53229 -0.21627,15.77041 -0.13114,16.8431 1.46325,18.43753 0.53625,0.53627 1.32415,1.06061 1.75089,1.16522 0.42674,0.1046 0.85229,0.30684 0.94567,0.44942 0.31094,0.47478 -0.0688,1.90111 -0.65224,2.45008 -0.54487,0.51266 -0.78243,0.53252 -4.41233,0.36895 -2.11006,-0.0951 -5.44381,-0.0869 -7.40834,0.0182 -1.96453,0.10511 -4.64343,0.1587 -5.95312,0.11907 -1.30969,-0.0396 -6.33616,-0.0883 -11.16994,-0.10823 -5.1166,-0.0211 -8.8525,-0.13942 -8.94141,-0.28329 -0.084,-0.1359 -0.22356,-0.84524 -0.31014,-1.57631 -0.15743,-1.3292 -0.15743,-1.3292 0.96605,-1.3292 0.91596,0 3.65435,-0.49555 5.23408,-0.94718 0.69054,-0.19741 0.27047,-1.65902 -1.51811,-5.28217 -2.84318,-5.75947 -1.49078,-5.14774 -11.38063,-5.14774 -9.37245,0 -8.93232,-0.0834 -9.71383,1.84159 -0.20911,0.5151 -0.62001,1.47232 -0.91311,2.12716 -1.49615,3.34271 -2.25198,5.74745 -1.913,6.08643 0.15487,0.15487 0.86689,0.39274 1.58227,0.52859 2.9411,0.55857 4.57462,0.93475 4.72788,1.08878 0.20759,0.20865 -0.62477,2.69255 -0.9768,2.91494 -0.32051,0.20246 -2.20897,0.25011 -2.39857,0.0605 z m 15.85541,-19.00223 c 0.0873,-0.22749 -1.14549,-2.98034 -2.8496,-6.36325 -1.65191,-3.27927 -3.121,-6.19795 -3.26465,-6.48596 -0.54949,-1.10171 -1.07078,-0.57749 -2.37342,2.38677 -0.41567,0.94588 -1.20026,2.67229 -1.74354,3.83645 -1.4579,3.12406 -2.63332,5.96099 -2.63332,6.35566 0,0.19092 0.14883,0.40307 0.33073,0.47146 0.1819,0.0684 3.0418,0.14132 6.35534,0.16208 5.16187,0.0323 6.04663,-0.0197 6.17846,-0.36321 z m 80.4011,18.8873 c -1.74625,-0.0832 -4.94882,-0.0942 -7.11683,-0.0245 -3.61326,0.11626 -3.97163,0.0861 -4.29948,-0.36229 -0.19671,-0.26901 -0.35765,-0.81519 -0.35765,-1.21373 0,-0.59398 0.21396,-0.83148 1.18674,-1.31731 2.09846,-1.04802 2.29071,-1.41128 2.6782,-5.0606 0.67297,-6.33793 0.37082,-30.97248 -0.41789,-34.07133 -0.12963,-0.50933 -0.31594,-1.71721 -0.41401,-2.6842 -0.17192,-1.69506 -0.15416,-1.77102 0.49498,-2.11667 0.37031,-0.19718 1.48417,-0.82428 2.47524,-1.39355 2.34854,-1.34899 4.85234,-2.68395 6.82903,-3.64102 0.87313,-0.42275 1.7661,-0.88126 1.98438,-1.0189 0.86527,-0.54564 2.24616,-1.06583 2.63359,-0.99209 0.22501,0.0428 0.44688,0.34241 0.49304,0.66572 0.0621,0.43469 -0.39933,1.06444 -1.77082,2.41702 -2.47188,2.43778 -2.67608,2.99 -2.69008,7.27464 -0.0119,3.64622 -0.35702,11.81832 -0.67463,15.97498 -0.23168,3.03209 -0.074,3.08673 2.289,0.7934 3.88843,-3.77373 7.87221,-6.24031 10.12327,-6.26788 1.54123,-0.0189 2.63125,0.65872 5.28168,3.28328 1.8944,1.87589 3.1799,4.03329 3.47343,5.82922 0.15391,0.94171 -0.16441,9.75802 -0.55195,15.28654 -0.21727,3.09949 0.3252,4.15433 2.62266,5.09983 0.68924,0.28364 1.31312,0.6712 1.38644,0.86124 0.16357,0.42404 -0.54361,2.20224 -1.02005,2.56489 -0.34983,0.26628 -15.33012,0.13922 -15.59735,-0.13229 -0.0716,-0.0728 -0.21163,-0.56822 -0.31114,-1.10102 -0.17607,-0.94269 -0.15004,-0.98308 0.96859,-1.50284 2.03378,-0.94497 2.35294,-1.34832 2.7705,-3.50129 0.48392,-2.49513 0.91341,-10.56824 0.70977,-13.34172 -0.0888,-1.2098 -0.35642,-2.51342 -0.62458,-3.04271 -0.71138,-1.40411 -2.09128,-2.57732 -3.45981,-2.94157 -1.2096,-0.32195 -1.2409,-0.31385 -2.57611,0.66628 -1.75243,1.2864 -3.05964,2.83061 -3.90007,4.60713 -1.18229,2.49914 -1.87988,12.08796 -1.05239,14.46575 0.41367,1.1887 1.74427,2.43281 2.93181,2.74124 1.10556,0.28715 1.23442,1.54211 0.28477,2.77323 -0.45325,0.5876 -0.76026,0.61476 -4.78228,0.4231 z m 62.44167,0.0876 c -7.8976,-0.0804 -7.80521,-0.0591 -7.80521,-1.79663 0,-0.73615 0.1221,-0.87342 1.04915,-1.17937 1.61441,-0.5328 2.17922,-1.32476 2.69955,-3.78524 0.61663,-2.91591 0.66222,-11.53425 0.0787,-14.88032 -0.41338,-2.3706 -1.02306,-4.64955 -1.46526,-5.47711 -0.58902,-1.10234 -0.29824,-1.64873 1.40817,-2.64622 2.39408,-1.39945 6.43993,-3.37664 6.90951,-3.37664 0.22175,0 0.73723,0.28828 1.14551,0.64063 0.73811,0.63696 0.74237,0.65919 0.74237,3.87951 0,2.41171 0.0873,3.26826 0.34187,3.35389 0.18804,0.0633 1.32678,-0.83054 2.53053,-1.9862 2.25523,-2.16511 5.46465,-4.49592 7.40166,-5.3754 1.37409,-0.62388 3.0298,-0.65196 3.88843,-0.0659 2.33209,1.59171 4.12141,3.72163 5.12122,6.09606 0.35369,0.83998 0.82666,1.56456 1.05103,1.61018 0.2259,0.0459 1.38597,-0.86917 2.59948,-2.05052 1.20536,-1.1734 2.2648,-2.13346 2.35434,-2.13346 0.0895,0 0.44886,-0.25112 0.79856,-0.55803 0.91702,-0.80486 3.3786,-2.38853 4.56729,-2.93839 0.56161,-0.25978 1.57364,-0.47167 2.24896,-0.47086 1.0917,0.001 1.4333,0.16518 3.07996,1.4774 1.75858,1.4014 3.81273,3.47224 3.82895,3.86004 0.004,0.0988 0.15846,0.33688 0.34293,0.52917 0.18449,0.1923 0.57144,0.88213 0.85989,1.53296 0.46503,1.04919 0.51552,1.66405 0.44543,5.42396 -0.0435,2.33234 -0.23477,6.12176 -0.42511,8.42093 -0.50207,6.06586 -0.21767,7.0912 2.27253,8.1918 1.60102,0.70761 1.60102,0.70761 1.41627,1.70838 -0.21442,1.16128 -1.13155,2.27437 -1.69564,2.05791 -0.21368,-0.082 -3.51073,-0.14736 -7.32676,-0.14526 -7.51446,0.004 -7.31488,0.0435 -7.64651,-1.50742 -0.1492,-0.69786 -0.0926,-0.88985 0.30019,-1.01776 0.95912,-0.31234 2.24587,-1.04217 2.68351,-1.52205 0.69297,-0.75989 1.11816,-3.32679 1.38705,-8.37403 0.25583,-4.80202 0.10819,-9.30074 -0.33292,-10.14372 -0.4417,-0.84416 -2.1259,-2.57526 -2.88981,-2.97028 -1.1099,-0.57396 -1.76614,-0.46732 -3.24678,0.52756 -2.81659,1.89255 -4.49548,4.59079 -4.91492,7.89914 -0.5151,4.06261 -0.63831,9.56634 -0.24432,10.91308 0.40222,1.37484 1.46082,2.42475 2.94611,2.92194 0.69974,0.23423 0.87852,0.44753 0.94586,1.1284 0.0896,0.90587 -0.85283,2.55167 -1.30212,2.27399 -0.13894,-0.0859 -3.58209,-0.15361 -7.65149,-0.15055 -6.9696,0.005 -7.41431,-0.0233 -7.66469,-0.49107 -0.14615,-0.27314 -0.26577,-0.83355 -0.26577,-1.24535 0,-0.6102 0.18357,-0.83053 0.99219,-1.19088 1.52627,-0.68017 2.35966,-1.56392 2.82948,-3.0005 0.58952,-1.80276 0.48434,-14.79218 -0.13192,-16.2872 -0.95676,-2.32113 -3.38368,-4.26353 -4.5534,-3.64436 -1.05101,0.55632 -2.41962,1.61953 -3.43691,2.66995 -2.01116,2.07663 -2.68119,4.21094 -3.12791,9.96348 -0.50427,6.49388 0.10742,8.69348 2.73212,9.82451 1.10849,0.47768 1.25677,0.63732 1.25677,1.35327 0,0.99 -0.92983,2.37138 -1.53938,2.28695 -0.24474,-0.0339 -3.65969,-0.0944 -7.58875,-0.13433 z" id="path826-3" inkscape:connector-curvature="0" sodipodi:nodetypes="ccccccccccsscsccscscccccscccccccccsccccccccsccccccsccccscccccssccccccscccccccccccccscccccccccsccscccsssccssccccscccsccccccccccccscccccccsccscssccsccccccccccsccccccsssccscscccccsccccsccccccscssccccccccscccccscscccccccsccccccccccccccccsccccccccccscccccccsccc"/>
      </g>
    </g>
  </g>
</svg>